<?xml version="1.0" standalone="no"?>
<!DOCTYPE svg PUBLIC "-//W3C//DTD SVG 20010904//EN"
 "http://www.w3.org/TR/2001/REC-SVG-20010904/DTD/svg10.dtd">
<svg version="1.0" xmlns="http://www.w3.org/2000/svg"
 width="512.000000pt" height="512.000000pt" viewBox="0 0 512.000000 512.000000"
 preserveAspectRatio="xMidYMid meet">
<metadata>
Created by potrace 1.11, written by Peter Selinger 2001-2013
</metadata>
<g transform="translate(0.000000,512.000000) scale(0.100000,-0.100000)"
fill="#000000" stroke="none">
<path d="M2379 5116 c-2 -2 -40 -6 -83 -10 -44 -4 -82 -8 -85 -10 -3 -2 -31
-7 -61 -11 -30 -3 -75 -11 -100 -17 -25 -5 -56 -12 -70 -14 -52 -10 -236 -66
-326 -100 -158 -59 -328 -144 -472 -236 -70 -45 -63 -44 -240 -53 -447 -23
-483 -29 -574 -102 -48 -40 -99 -114 -117 -173 -8 -30 -18 -108 -46 -360 -2
-20 -6 -78 -10 -130 -4 -52 -8 -105 -10 -117 -2 -12 -6 -84 -10 -160 -5 -102
-13 -156 -30 -208 -110 -338 -140 -523 -139 -865 0 -183 3 -241 19 -345 3 -16
7 -43 9 -60 16 -111 65 -303 115 -445 162 -465 468 -879 877 -1188 364 -276
769 -438 1239 -496 112 -14 503 -15 595 -2 237 35 453 89 636 162 641 252
1183 787 1432 1414 49 122 108 301 118 355 3 15 11 55 19 89 36 154 49 296 50
521 0 166 -6 285 -19 360 -3 17 -8 44 -10 60 -3 17 -9 53 -15 80 -6 28 -13 61
-15 75 -10 50 -49 187 -77 266 -22 65 -29 108 -34 205 -3 68 -8 140 -10 159
-2 19 -7 73 -10 120 -4 47 -8 99 -10 115 -1 17 -6 62 -9 100 -4 39 -9 84 -11
100 -2 17 -7 55 -10 85 -8 72 -9 78 -25 125 -29 86 -91 157 -175 198 -68 34
-103 39 -345 52 -69 4 -133 9 -143 11 -10 1 -55 4 -102 5 -65 1 -91 6 -119 23
-19 11 -66 40 -103 62 -154 94 -302 163 -477 223 -104 36 -284 85 -356 97 -70
11 -85 14 -195 30 -44 6 -460 15 -466 10z"/>
</g>
</svg>
